<mxfile host="65bd71144e" modified="2021-02-26T12:14:42.829Z" agent="5.0 (Windows NT 10.0; Win64; x64) AppleWebKit/537.36 (KHTML, like Gecko) Code/1.53.0 Chrome/87.0.4280.141 Electron/11.2.1 Safari/537.36" etag="hihN6OBtBdLz8IDP2MFP" version="14.2.4" type="embed">
    <diagram id="-GOfPiSllcYxVZ9m9jCf" name="Page-1">
        <mxGraphModel dx="1273" dy="550" grid="1" gridSize="10" guides="1" tooltips="1" connect="1" arrows="1" fold="1" page="1" pageScale="1" pageWidth="1600" pageHeight="1200" background="none" math="0" shadow="0">
            <root>
                <mxCell id="0"/>
                <mxCell id="1" parent="0"/>
                <mxCell id="REhorO_ukNLO52NbyeEt-13" style="edgeStyle=orthogonalEdgeStyle;rounded=0;orthogonalLoop=1;jettySize=auto;html=1;entryX=0.5;entryY=0;entryDx=0;entryDy=0;" parent="1" source="REhorO_ukNLO52NbyeEt-3" target="REhorO_ukNLO52NbyeEt-4" edge="1">
                    <mxGeometry relative="1" as="geometry"/>
                </mxCell>
                <mxCell id="REhorO_ukNLO52NbyeEt-3" value="&lt;font style=&quot;font-size: 30px&quot;&gt;&lt;b&gt;ERP Project&lt;br&gt;&lt;/b&gt;&lt;/font&gt;" style="text;html=1;align=center;verticalAlign=middle;whiteSpace=wrap;rounded=0;fillColor=#f5f5f5;strokeColor=#666666;fontColor=#333333;strokeWidth=4;" parent="1" vertex="1">
                    <mxGeometry x="315" y="20" width="220" height="60" as="geometry"/>
                </mxCell>
                <mxCell id="REhorO_ukNLO52NbyeEt-12" style="edgeStyle=orthogonalEdgeStyle;rounded=0;orthogonalLoop=1;jettySize=auto;html=1;entryX=0.5;entryY=0;entryDx=0;entryDy=0;" parent="1" source="REhorO_ukNLO52NbyeEt-4" target="REhorO_ukNLO52NbyeEt-5" edge="1">
                    <mxGeometry relative="1" as="geometry"/>
                </mxCell>
                <mxCell id="REhorO_ukNLO52NbyeEt-4" value="&lt;b&gt;&lt;font style=&quot;font-size: 25px&quot;&gt;User Model&lt;br&gt;&lt;/font&gt;&lt;/b&gt;" style="text;html=1;align=center;verticalAlign=middle;whiteSpace=wrap;rounded=0;strokeWidth=3;fillColor=#f5f5f5;strokeColor=#666666;fontColor=#333333;" parent="1" vertex="1">
                    <mxGeometry x="330" y="120" width="190" height="40" as="geometry"/>
                </mxCell>
                <mxCell id="REhorO_ukNLO52NbyeEt-17" style="edgeStyle=orthogonalEdgeStyle;rounded=0;orthogonalLoop=1;jettySize=auto;html=1;entryX=0.5;entryY=0;entryDx=0;entryDy=0;" parent="1" source="REhorO_ukNLO52NbyeEt-5" target="REhorO_ukNLO52NbyeEt-8" edge="1">
                    <mxGeometry relative="1" as="geometry"/>
                </mxCell>
                <mxCell id="REhorO_ukNLO52NbyeEt-18" style="edgeStyle=orthogonalEdgeStyle;rounded=0;orthogonalLoop=1;jettySize=auto;html=1;entryX=0.5;entryY=0;entryDx=0;entryDy=0;" parent="1" source="REhorO_ukNLO52NbyeEt-5" target="REhorO_ukNLO52NbyeEt-9" edge="1">
                    <mxGeometry relative="1" as="geometry"/>
                </mxCell>
                <mxCell id="REhorO_ukNLO52NbyeEt-5" value="&lt;font style=&quot;font-size: 25px&quot;&gt;&lt;b&gt;Groups&lt;/b&gt;&lt;/font&gt;" style="text;html=1;align=center;verticalAlign=middle;whiteSpace=wrap;rounded=0;fillColor=#f5f5f5;strokeColor=#666666;fontColor=#333333;" parent="1" vertex="1">
                    <mxGeometry x="120" y="240" width="120" height="40" as="geometry"/>
                </mxCell>
                <mxCell id="REhorO_ukNLO52NbyeEt-19" style="edgeStyle=orthogonalEdgeStyle;rounded=0;orthogonalLoop=1;jettySize=auto;html=1;entryX=0;entryY=0.5;entryDx=0;entryDy=0;" parent="1" source="REhorO_ukNLO52NbyeEt-8" target="REhorO_ukNLO52NbyeEt-11" edge="1">
                    <mxGeometry relative="1" as="geometry"/>
                </mxCell>
                <mxCell id="REhorO_ukNLO52NbyeEt-8" value="&lt;font style=&quot;font-size: 25px&quot;&gt;Admins&lt;/font&gt;" style="text;html=1;fillColor=#f5f5f5;align=center;verticalAlign=middle;whiteSpace=wrap;rounded=0;strokeColor=#666666;fontColor=#333333;" parent="1" vertex="1">
                    <mxGeometry x="40" y="360" width="120" height="40" as="geometry"/>
                </mxCell>
                <mxCell id="jUNscZfpDp0o_yQUx_2q-3" style="edgeStyle=orthogonalEdgeStyle;rounded=0;orthogonalLoop=1;jettySize=auto;html=1;entryX=0.5;entryY=0;entryDx=0;entryDy=0;" parent="1" source="REhorO_ukNLO52NbyeEt-9" target="jUNscZfpDp0o_yQUx_2q-2" edge="1">
                    <mxGeometry relative="1" as="geometry"/>
                </mxCell>
                <mxCell id="REhorO_ukNLO52NbyeEt-9" value="&lt;font style=&quot;font-size: 25px&quot;&gt;Faculties&lt;/font&gt;" style="text;html=1;fillColor=#f5f5f5;align=center;verticalAlign=middle;whiteSpace=wrap;rounded=0;strokeColor=#666666;strokeWidth=1;fontColor=#333333;" parent="1" vertex="1">
                    <mxGeometry x="200" y="360" width="120" height="40" as="geometry"/>
                </mxCell>
                <mxCell id="REhorO_ukNLO52NbyeEt-11" value="&lt;font style=&quot;font-size: 20px&quot;&gt;All Permissions&lt;/font&gt;" style="text;html=1;align=center;verticalAlign=middle;whiteSpace=wrap;rounded=0;strokeWidth=1;fillColor=#f5f5f5;strokeColor=#666666;fontColor=#333333;" parent="1" vertex="1">
                    <mxGeometry x="40" y="440" width="160" height="40" as="geometry"/>
                </mxCell>
                <mxCell id="jUNscZfpDp0o_yQUx_2q-2" value="&lt;font style=&quot;font-size: 20px&quot;&gt;active&lt;/font&gt;" style="text;html=1;align=center;verticalAlign=middle;whiteSpace=wrap;rounded=0;strokeColor=#666666;strokeWidth=1;fillColor=#f5f5f5;fontColor=#333333;" parent="1" vertex="1">
                    <mxGeometry x="240" y="440" width="80" height="40" as="geometry"/>
                </mxCell>
            </root>
        </mxGraphModel>
    </diagram>
</mxfile>